# File created by Blade
# Date/Time:  Tue Jan 27 18:05:41 2015
# Frame Rate: 120.000 fps
#------------------------------------------------------
:FULLY-SPECIFIED
:DEGREES
3361
root -1.378593 31.966007 -6.803122 6.930112 2.189850 2.180345
Spine -4.255982 -19.152532 -5.816540
Head 2.522142 7.621868 13.382743
LeftShoulder -13.117337 16.394651 8.944478
LeftArm 20.886730 31.915393 -76.053794
LeftForeArm -3.054528 -0.000000 18.160795
LeftHand -11.403500 -0.000000 -0.680103
LeftHandThumb1 -26.253704 0.000000 33.147579
RightShoulder -15.875734 6.593237 -42.877195
RightArm 1.963864 47.540560 21.690430
RightForeArm 8.125549 -0.000000 92.530505
RightHand -8.559476 0.000000 7.653902
RightHandThumb1 -24.326973 -0.000000 -32.862282
LeftUpLeg -2.037124 2.590489 -0.639187
LeftLeg -0.392468 -0.000000 0.000000
LeftFoot -17.656841 18.359276 -25.262615
LeftToeBase 8.695112 -0.000000 -0.000000
RightUpLeg -1.547762 -2.283176 -3.059981
RightLeg -2.739462 -0.000000 0.000000
RightFoot -13.003389 -11.383841 9.437177
RightToeBase 4.736353 -0.000000 -0.000000
3362
root -1.376618 31.965976 -6.798501 6.890478 2.131946 2.181076
Spine -4.253447 -19.067509 -5.818291
Head 2.496101 7.630893 13.321821
LeftShoulder -13.148438 16.447935 8.882503
LeftArm 20.901327 31.934914 -76.010504
LeftForeArm -3.018770 -0.000000 18.203979
LeftHand -11.376230 -0.000000 -0.669014
LeftHandThumb1 -26.253704 0.000000 33.147579
RightShoulder -15.793219 6.536241 -42.819620
RightArm 2.220887 47.643192 21.897646
RightForeArm 8.217538 -0.000000 92.490832
RightHand -8.500999 0.000000 7.714397
RightHandThumb1 -24.326973 -0.000000 -32.862282
LeftUpLeg -1.982503 2.568592 -0.642594
LeftLeg -0.385690 -0.000000 0.000000
LeftFoot -17.681376 18.423616 -25.237892
LeftToeBase 8.669050 -0.000000 -0.000000
RightUpLeg -1.491239 -2.277536 -3.070187
RightLeg -2.779859 -0.000000 0.000000
RightFoot -12.972530 -11.327553 9.441145
RightToeBase 4.727161 -0.000000 -0.000000
3363
root -1.374774 31.965432 -6.799425 6.875524 2.086435 2.183453
Spine -4.254313 -19.003818 -5.815899
Head 2.429446 7.683583 13.273230
LeftShoulder -13.164452 16.472886 8.842790
LeftArm 20.887601 31.972735 -75.990384
LeftForeArm -2.983262 -0.000000 18.226358
LeftHand -11.367268 -0.000000 -0.686385
LeftHandThumb1 -26.253704 0.000000 33.147579
RightShoulder -15.763720 6.673426 -42.850263
RightArm 2.431370 47.494498 22.104325
RightForeArm 8.279700 0.000000 92.434686
RightHand -8.422288 -0.000000 7.814810
RightHandThumb1 -24.326973 -0.000000 -32.862282
LeftUpLeg -1.983597 2.579354 -0.652061
LeftLeg -0.342907 -0.000000 0.000000
LeftFoot -17.718096 18.442521 -25.243745
LeftToeBase 8.666575 -0.000000 -0.000000
RightUpLeg -1.489890 -2.230673 -3.084472
RightLeg -2.771748 -0.000000 0.000000
RightFoot -12.972268 -11.319868 9.414297
RightToeBase 4.693671 -0.000000 -0.000000
3364
root -1.372964 31.965092 -6.798935 6.860712 2.051532 2.185771
Spine -4.260494 -18.961324 -5.808421
Head 2.371909 7.722165 13.203185
LeftShoulder -13.171725 16.485728 8.809583
LeftArm 20.838404 32.023817 -75.985462
LeftForeArm -2.968773 -0.000000 18.222246
LeftHand -11.351068 0.000000 -0.789257
LeftHandThumb1 -26.253704 0.000000 33.147579
RightShoulder -15.709595 6.751386 -42.841533
RightArm 2.623452 47.385850 22.246924
RightForeArm 8.378533 -0.000000 92.377192
RightHand -8.311573 -0.000000 7.776865
RightHandThumb1 -24.326973 -0.000000 -32.862282
LeftUpLeg -1.976770 2.568476 -0.660049
LeftLeg -0.313011 -0.000000 0.000000
LeftFoot -17.761386 18.473303 -25.258768
LeftToeBase 8.661577 -0.000000 -0.000000
RightUpLeg -1.469875 -2.260508 -3.090320
RightLeg -2.794683 -0.000000 0.000000
RightFoot -12.947649 -11.264548 9.415896
RightToeBase 4.698151 -0.000000 -0.000000
3365
root -1.371881 31.965098 -6.799161 6.849365 2.014303 2.190734
Spine -4.263557 -18.947121 -5.808007
Head 2.322118 7.810128 13.151427
LeftShoulder -13.213102 16.516067 8.774118
LeftArm 20.796574 32.056011 -75.996424
LeftForeArm -2.913517 -0.000000 18.217124
LeftHand -11.388116 -0.000000 -0.863723
LeftHandThumb1 -26.253704 0.000000 33.147579
RightShoulder -15.615438 6.621201 -42.739945
RightArm 2.908432 47.488073 22.425347
RightForeArm 8.466904 -0.000000 92.327221
RightHand -8.338991 -0.000000 7.886199
RightHandThumb1 -24.326973 -0.000000 -32.862282
LeftUpLeg -1.976085 2.595217 -0.670947
LeftLeg -0.283209 -0.000000 0.000000
LeftFoot -17.794294 18.469699 -25.288421
LeftToeBase 8.703377 -0.000000 -0.000000
RightUpLeg -1.473814 -2.197287 -3.106788
RightLeg -2.776206 -0.000000 0.000000
RightFoot -12.960947 -11.266709 9.431195
RightToeBase 4.744485 -0.000000 -0.000000
3366
root -1.371038 31.964543 -6.798039 6.830463 1.996364 2.194266
Spine -4.261205 -18.919949 -5.807421
Head 2.267985 7.846759 13.090639
LeftShoulder -13.212669 16.560260 8.752033
LeftArm 20.764338 32.093692 -76.010089
LeftForeArm -2.824652 -0.000000 18.191013
LeftHand -11.447320 -0.000000 -0.892561
LeftHandThumb1 -26.253704 0.000000 33.147579
RightShoulder -15.582768 6.841080 -42.766379
RightArm 3.033078 47.200672 22.507506
RightForeArm 8.471668 0.000000 92.291704
RightHand -8.433203 -0.000000 7.764101
RightHandThumb1 -24.326973 -0.000000 -32.862282
LeftUpLeg -1.961259 2.612161 -0.679524
LeftLeg -0.268031 -0.000000 0.000000
LeftFoot -17.834144 18.468152 -25.326528
LeftToeBase 8.740805 -0.000000 -0.000000
RightUpLeg -1.448736 -2.203480 -3.113043
RightLeg -2.790587 -0.000000 0.000000
RightFoot -12.952041 -11.245147 9.410999
RightToeBase 4.712450 -0.000000 -0.000000
3367
root -1.370668 31.964384 -6.797039 6.822177 1.970952 2.197781
Spine -4.265254 -18.870174 -5.795790
Head 2.189446 7.876917 13.000819
LeftShoulder -13.199708 16.562555 8.732659
LeftArm 20.712698 32.229297 -75.987687
LeftForeArm -2.862689 0.000000 18.151695
LeftHand -11.404926 -0.000000 -0.889612
LeftHandThumb1 -26.253704 0.000000 33.147579
RightShoulder -15.548570 6.773790 -42.726251
RightArm 3.228886 47.152968 22.607426
RightForeArm 8.500175 -0.000000 92.272688
RightHand -8.279118 -0.000000 7.922286
RightHandThumb1 -24.326973 -0.000000 -32.862282
LeftUpLeg -1.957545 2.654277 -0.686814
LeftLeg -0.250173 -0.000000 0.000000
LeftFoot -17.847458 18.439042 -25.352871
LeftToeBase 8.719426 -0.000000 -0.000000
RightUpLeg -1.449214 -2.190885 -3.120057
RightLeg -2.777528 -0.000000 0.000000
RightFoot -12.961413 -11.230967 9.403251
RightToeBase 4.714227 -0.000000 -0.000000
3368
root -1.370185 31.964519 -6.796087 6.818322 1.962043 2.200763
Spine -4.277599 -18.869329 -5.779388
Head 2.132821 7.926090 12.914656
LeftShoulder -13.220401 16.601583 8.710553
LeftArm 20.692907 32.376371 -75.962740
LeftForeArm -2.802815 -0.000000 18.082214
LeftHand -11.337145 -0.000000 -0.952481
LeftHandThumb1 -26.253704 0.000000 33.147579
RightShoulder -15.482925 6.622572 -42.652903
RightArm 3.464653 47.165420 22.725966
RightForeArm 8.490427 -0.000000 92.274960
RightHand -8.288083 -0.000000 7.743534
RightHandThumb1 -24.326973 -0.000000 -32.862282
LeftUpLeg -1.955860 2.661547 -0.691426
LeftLeg -0.232006 -0.000000 0.000000
LeftFoot -17.812199 18.465797 -25.229453
LeftToeBase 8.631740 -0.000000 -0.000000
RightUpLeg -1.449359 -2.161032 -3.128073
RightLeg -2.768419 -0.000000 0.000000
RightFoot -12.965315 -11.230455 9.399336
RightToeBase 4.709779 -0.000000 -0.000000
3369
root -1.371333 31.964016 -6.794581 6.810629 1.948763 2.190122
Spine -4.288707 -18.845905 -5.758109
Head 2.072874 7.946051 12.858146
LeftShoulder -13.209984 16.622263 8.712855
LeftArm 20.673835 32.561942 -75.943342
LeftForeArm -2.767101 0.000000 17.977333
LeftHand -11.288355 0.000000 -1.107350
LeftHandThumb1 -26.253704 0.000000 33.147579
RightShoulder -15.437568 6.652693 -42.634166
RightArm 3.588298 47.026815 22.773327
RightForeArm 8.373705 -0.000000 92.262591
RightHand -8.305438 -0.000000 7.775152
RightHandThumb1 -24.326973 -0.000000 -32.862282
LeftUpLeg -1.949904 2.724352 -0.683954
LeftLeg -0.227606 -0.000000 0.000000
LeftFoot -17.849837 18.406390 -25.324990
LeftToeBase 8.725338 -0.000000 -0.000000
RightUpLeg -1.446407 -2.114839 -3.121538
RightLeg -2.754434 -0.000000 0.000000
RightFoot -12.977339 -11.234519 9.425689
RightToeBase 4.761108 -0.000000 -0.000000
3370
root -1.372267 31.963395 -6.793305 6.812694 1.945080 2.190924
Spine -4.330555 -18.849862 -5.719858
Head 2.027289 7.911838 12.714375
LeftShoulder -13.292767 16.774701 8.589676
LeftArm 21.044290 33.740689 -75.143595
LeftForeArm -3.830635 -0.000000 18.188108
LeftHand -11.375101 -0.000000 -0.473065
LeftHandThumb1 -26.253704 0.000000 33.147579
RightShoulder -15.382153 6.663057 -42.664093
RightArm 3.747362 46.876290 22.882491
RightForeArm 8.131017 -0.000000 92.287390
RightHand -8.422126 -0.000000 7.766267
RightHandThumb1 -24.326973 -0.000000 -32.862282
LeftUpLeg -1.945252 2.750213 -0.684049
LeftLeg -0.235505 -0.000000 0.000000
LeftFoot -17.845309 18.387348 -25.321999
LeftToeBase 8.704975 -0.000000 -0.000000
RightUpLeg -1.445569 -2.064332 -3.125477
RightLeg -2.758851 -0.000000 0.000000
RightFoot -12.984195 -11.264841 9.444198
RightToeBase 4.695935 -0.000000 -0.000000
3371
root -1.373704 31.963327 -6.792265 6.810557 1.947259 2.187912
Spine -4.341356 -18.865111 -5.705496
Head 1.973557 7.974134 12.663625
LeftShoulder -13.283305 16.775405 8.607398
LeftArm 20.980677 33.925614 -75.161518
LeftForeArm -3.807107 -0.000000 18.081542
LeftHand -11.487242 0.000000 -0.559232
LeftHandThumb1 -26.253704 0.000000 33.147579
RightShoulder -15.349941 6.696897 -42.635159
RightArm 3.894159 46.712776 22.920298
RightForeArm 8.002105 -0.000000 92.298428
RightHand -8.483465 -0.000000 7.818666
RightHandThumb1 -24.326973 -0.000000 -32.862282
LeftUpLeg -1.940132 2.768265 -0.677503
LeftLeg -0.237328 -0.000000 0.000000
LeftFoot -17.810116 18.389220 -25.245446
LeftToeBase 8.659901 -0.000000 -0.000000
RightUpLeg -1.452147 -2.045010 -3.122252
RightLeg -2.733647 -0.000000 0.000000
RightFoot -12.996936 -11.266155 9.437018
RightToeBase 4.726108 -0.000000 -0.000000
